<?xml version="1.0" encoding="UTF-8" standalone="no"?>
<!DOCTYPE svg PUBLIC "-//W3C//DTD SVG 1.1//EN"
 "http://www.w3.org/Graphics/SVG/1.1/DTD/svg11.dtd">
<!-- Generated by graphviz version 2.42.3 (20191010.1750)
 -->
<!-- Title: node_structure Pages: 1 -->
<svg width="364pt" height="280pt"
 viewBox="0.00 0.00 364.00 280.00" xmlns="http://www.w3.org/2000/svg" xmlns:xlink="http://www.w3.org/1999/xlink">
<g id="graph0" class="graph" transform="scale(1 1) rotate(0) translate(4 276)">
<title>node_structure</title>
<polygon fill="white" stroke="transparent" points="-4,4 -4,-276 360,-276 360,4 -4,4"/>
<!-- parent -->
<g id="node1" class="node">
<title>parent</title>
<polygon fill="none" stroke="black" points="0,-164.5 0,-233.5 133,-233.5 133,-164.5 0,-164.5"/>
<text text-anchor="middle" x="29.5" y="-195.3" font-family="Times,serif" font-size="14.00">ノード</text>
<polyline fill="none" stroke="black" points="59,-164.5 59,-233.5 "/>
<text text-anchor="middle" x="96" y="-218.3" font-family="Times,serif" font-size="14.00">ヘッダ</text>
<polyline fill="none" stroke="black" points="59,-210.5 133,-210.5 "/>
<text text-anchor="middle" x="96" y="-195.3" font-family="Times,serif" font-size="14.00">属性</text>
<polyline fill="none" stroke="black" points="59,-187.5 133,-187.5 "/>
<text text-anchor="middle" x="96" y="-172.3" font-family="Times,serif" font-size="14.00">子ノード</text>
</g>
<!-- parent_name -->
<g id="node2" class="node">
<title>parent_name</title>
<polygon fill="none" stroke="black" points="299.5,-272 225.5,-272 225.5,-236 299.5,-236 299.5,-272"/>
<text text-anchor="middle" x="262.5" y="-250.3" font-family="Times,serif" font-size="14.00">ノード名</text>
</g>
<!-- parent&#45;&gt;parent_name -->
<g id="edge1" class="edge">
<title>parent:e&#45;&gt;parent_name:w</title>
<path fill="none" stroke="black" d="M133,-222C172.38,-222 180.22,-248.74 214.18,-253.33"/>
<polygon fill="black" stroke="black" points="214.29,-256.85 224.5,-254 214.75,-249.86 214.29,-256.85"/>
</g>
<!-- parent_attrs -->
<g id="node3" class="node">
<title>parent_attrs</title>
<polygon fill="none" stroke="black" points="169,-181 169,-217 356,-217 356,-181 169,-181"/>
<text text-anchor="middle" x="195" y="-195.3" font-family="Times,serif" font-size="14.00">属性1</text>
<polyline fill="none" stroke="black" points="221,-181 221,-217 "/>
<text text-anchor="middle" x="247" y="-195.3" font-family="Times,serif" font-size="14.00">属性2</text>
<polyline fill="none" stroke="black" points="273,-181 273,-217 "/>
<text text-anchor="middle" x="299" y="-195.3" font-family="Times,serif" font-size="14.00">属性3</text>
<polyline fill="none" stroke="black" points="325,-181 325,-217 "/>
<text text-anchor="middle" x="340.5" y="-195.3" font-family="Times,serif" font-size="14.00">…</text>
</g>
<!-- parent&#45;&gt;parent_attrs -->
<g id="edge2" class="edge">
<title>parent:e&#45;&gt;parent_attrs:w</title>
<path fill="none" stroke="black" d="M133,-199C145,-199 150.25,-199 158.88,-199"/>
<polygon fill="black" stroke="black" points="159,-202.5 169,-199 159,-195.5 159,-202.5"/>
</g>
<!-- children -->
<g id="node4" class="node">
<title>children</title>
<polygon fill="none" stroke="black" points="186,-0.5 186,-161.5 339,-161.5 339,-0.5 186,-0.5"/>
<text text-anchor="middle" x="196" y="-77.3" font-family="Times,serif" font-size="14.00"> </text>
<polyline fill="none" stroke="black" points="206,-0.5 206,-161.5 "/>
<text text-anchor="middle" x="235.5" y="-123.3" font-family="Times,serif" font-size="14.00">ノード</text>
<polyline fill="none" stroke="black" points="265,-92.5 265,-161.5 "/>
<text text-anchor="middle" x="302" y="-146.3" font-family="Times,serif" font-size="14.00">ヘッダ</text>
<polyline fill="none" stroke="black" points="265,-138.5 339,-138.5 "/>
<text text-anchor="middle" x="302" y="-123.3" font-family="Times,serif" font-size="14.00">属性</text>
<polyline fill="none" stroke="black" points="265,-115.5 339,-115.5 "/>
<text text-anchor="middle" x="302" y="-100.3" font-family="Times,serif" font-size="14.00">子ノード</text>
<polyline fill="none" stroke="black" points="206,-92.5 339,-92.5 "/>
<text text-anchor="middle" x="235.5" y="-54.3" font-family="Times,serif" font-size="14.00">ノード</text>
<polyline fill="none" stroke="black" points="265,-23.5 265,-92.5 "/>
<text text-anchor="middle" x="302" y="-77.3" font-family="Times,serif" font-size="14.00">ヘッダ</text>
<polyline fill="none" stroke="black" points="265,-69.5 339,-69.5 "/>
<text text-anchor="middle" x="302" y="-54.3" font-family="Times,serif" font-size="14.00">属性</text>
<polyline fill="none" stroke="black" points="265,-46.5 339,-46.5 "/>
<text text-anchor="middle" x="302" y="-31.3" font-family="Times,serif" font-size="14.00">子ノード</text>
<polyline fill="none" stroke="black" points="206,-23.5 339,-23.5 "/>
<text text-anchor="middle" x="272.5" y="-8.3" font-family="Times,serif" font-size="14.00">⋮</text>
</g>
<!-- parent&#45;&gt;children -->
<g id="edge3" class="edge">
<title>parent:e&#45;&gt;children:w</title>
<path fill="none" stroke="black" d="M133.37,-164.15C161.94,-137.08 144.88,-90.41 174.33,-82.24"/>
<polygon fill="black" stroke="black" points="175,-85.68 184.5,-81 174.15,-78.73 175,-85.68"/>
</g>
</g>
</svg>
